<?xml version="1.0"?>
<svg xmlns="http://www.w3.org/2000/svg" xmlns:xlink="http://www.w3.org/1999/xlink" version="1.1" id="Layer_1" x="0px" y="0px" viewBox="0 0 511.999 511.999" style="enable-background:new 0 0 511.999 511.999;" xml:space="preserve" width="512px" height="512px"><g><g>
	<g>
		<path d="M483.585,104.274H266.834c-12.396-43.627-52.598-75.673-100.144-75.673c-47.547,0-87.749,32.046-100.144,75.673H28.413    C12.721,104.273,0,116.995,0,132.686S12.721,161.1,28.413,161.1h38.131c12.396,43.627,52.597,75.673,100.144,75.673    c47.546,0,87.749-32.046,100.144-75.673h216.753c15.692,0,28.413-12.722,28.413-28.413S499.276,104.274,483.585,104.274z     M166.689,179.945c-26.06,0-47.26-21.201-47.26-47.26s21.2-47.26,47.26-47.26s47.26,21.201,47.26,47.26    S192.749,179.945,166.689,179.945z" data-original="#000000" class="active-path" data-old_color="#000000" fill="#6B6B6B"/>
	</g>
</g><g>
	<g>
		<path d="M483.586,350.899h-38.2c-12.396-43.627-52.597-75.673-100.144-75.673s-87.749,32.046-100.144,75.673H28.413    C12.721,350.899,0,363.621,0,379.312c0,15.692,12.721,28.413,28.413,28.413h216.685c12.396,43.627,52.597,75.673,100.144,75.673    s87.749-32.046,100.144-75.673h38.2c15.692,0,28.413-12.722,28.413-28.413C512,363.62,499.278,350.899,483.586,350.899z     M345.242,426.572c-26.06,0-47.26-21.201-47.26-47.26c0-26.06,21.201-47.26,47.26-47.26c26.06,0,47.26,21.201,47.26,47.26    C392.503,405.372,371.301,426.572,345.242,426.572z" data-original="#000000" class="active-path" data-old_color="#000000" fill="#6B6B6B"/>
	</g>
</g></g> </svg>
